<svg xmlns="http://www.w3.org/2000/svg" width="32" height="32" viewBox="0 0 32 32">
  <rect width="32" height="32" rx="6" fill="#C03030"/>
  <path d="M16 7c-.5 0-1 .2-1.3.5L9.2 13a2 2 0 0 0-.2 2.5l5.5 8.5c.3.5.9.8 1.5.8s1.2-.3 1.5-.8l5.5-8.5a2 2 0 0 0-.2-2.5l-5.5-5.5c-.3-.3-.8-.5-1.3-.5z" fill="#fff" opacity="0.95"/>
  <circle cx="16" cy="15" r="3.5" fill="#2B5E3A"/>
  <path d="M14.5 8.5c-.5-2 .5-3.5 1.5-4.5.5 1.5 2 2.5 2 4" stroke="#2B5E3A" stroke-width="1.5" fill="none" stroke-linecap="round"/>
</svg>
